<?xml version="1.0" encoding="utf-8"?>
<!-- Generator: Adobe Illustrator 25.0.0, SVG Export Plug-In . SVG Version: 6.00 Build 0)  -->
<svg version="1.1" id="Calque_1" xmlns="http://www.w3.org/2000/svg" xmlns:xlink="http://www.w3.org/1999/xlink" x="0px" y="0px"
	 viewBox="0 0 600 180" style="enable-background:new 0 0 600 180;" xml:space="preserve">
<g>
	<path d="M208.5,55.6h-33.3v102h33.3c16.9,0,29.7-4.3,38.5-12.8c8.8-8.6,13.1-21.3,13.1-38.2c0-16.9-4.4-29.6-13.1-38.2
		C238.2,59.9,225.3,55.6,208.5,55.6z M241.7,140.3c-7.4,7.4-19,11.1-34.7,11.1h-24.7V61.9h24.7c15.8,0,27.4,3.7,34.7,11.1
		c7.4,7.4,11.1,18.6,11.1,33.6C252.7,121.7,249,132.9,241.7,140.3z"/>
	<rect x="272.9" y="85.8" width="6.6" height="71.8"/>
	<path d="M276.1,64.8c-1.3,0-2.4,0.4-3.4,1.2c-0.9,0.8-1.4,1.8-1.4,3.1c0,1.4,0.4,2.5,1.3,3.4c0.9,0.8,2,1.2,3.4,1.2
		c1.4,0,2.6-0.4,3.5-1.2c0.9-0.8,1.4-1.9,1.4-3.4c0-1.2-0.5-2.2-1.4-3.1C278.7,65.3,277.5,64.8,276.1,64.8z"/>
	<polygon points="335.5,149.7 296,55.6 288.5,55.6 332,157.6 339.3,157.6 382.7,55.6 375.2,55.6 	"/>
	<path d="M395.1,64.8c-1.3,0-2.4,0.4-3.4,1.2c-0.9,0.8-1.4,1.8-1.4,3.1c0,1.4,0.4,2.5,1.3,3.4c0.9,0.8,2,1.2,3.4,1.2
		c1.4,0,2.6-0.4,3.5-1.2c0.9-0.8,1.4-1.9,1.4-3.4c0-1.2-0.5-2.2-1.4-3.1C397.7,65.3,396.5,64.8,395.1,64.8z"/>
	<rect x="391.9" y="85.8" width="6.6" height="71.8"/>
	<path d="M555.9,50.8v-7.1c-43.2,0-64.6,22.1-65.3,67.6h0v2.1c0,0.1,0,0.2,0,0.3h0v35.1l-66.3-93.2h-8.6v102h7V64.5l66.3,93.2h8.6
		v-43.9h0C497.6,70.2,515.6,50.8,555.9,50.8z"/>
	<path d="M573.1,99.7c-2.6-4.7-6.3-8.4-11.1-11.2c-4.8-2.8-10.6-4.2-17.6-4.2c-6.4,0-12.2,1.5-17.3,4.6c-5.1,3.1-9.2,7.4-12.2,13
		c-3,5.6-4.5,12.2-4.5,19.9c0,7.6,1.5,14.3,4.6,19.9c3.1,5.7,7.3,10,12.6,13c5.3,3,11.5,4.5,18.4,4.5c5.9,0,11.1-0.9,15.6-2.6
		c4.5-1.7,8.6-4.3,12.4-7.8l-3.4-4.9c-3.5,3.1-7.1,5.4-10.8,7c-3.8,1.6-8.2,2.4-13.3,2.4c-5.7,0-10.7-1.2-15-3.7
		c-4.3-2.4-7.7-5.9-10.2-10.3c-2.5-4.4-3.8-9.8-4-16.1H575c0.5-0.9,1-2.1,1.4-3.7c0.4-1.5,0.6-3,0.6-4.4
		C577,109.6,575.7,104.4,573.1,99.7z M570,116.2c-0.1,0.5-0.2,0.9-0.4,1.3h-52.4c0.6-5.8,2.2-10.7,4.7-14.7c2.5-4,5.8-7,9.7-9.2
		c3.9-2.2,8.2-3.3,12.8-3.3c5.6,0,10.3,1.1,14,3.2c3.8,2.1,6.6,5,8.6,8.7c2,3.7,3,7.8,3,12.5C570.1,115.2,570.1,115.7,570,116.2z"/>
	<rect x="64.1" y="20.9" width="32.9" height="136.8"/>
	<rect x="23" y="76.9" width="32.9" height="80.7"/>
	<rect x="105.3" y="123.4" width="32.9" height="34.2"/>
</g>
<path d="M-891.7-212.7"/>
</svg>
